<svg width="37" height="37" viewBox="0 0 37 37" fill="none" xmlns="http://www.w3.org/2000/svg">
<circle cx="18.5" cy="18.5" r="18.5" fill="#FFBB36"/>
<path d="M19.4517 18.7386L17.6648 18.739V20.9828H19.4517C20.0703 20.9828 20.5736 20.4794 20.5736 19.8607C20.5736 19.5627 20.4565 19.2814 20.2437 19.0686C20.0309 18.8558 19.7496 18.7386 19.4517 18.7386Z" fill="white"/>
<path d="M20.0898 16.9072C20.0898 16.671 19.9969 16.4481 19.8281 16.2793C19.6594 16.1106 19.4364 16.0176 19.2003 16.0177H17.6648V17.7964H19.2148C19.6986 17.7886 20.0898 17.3928 20.0898 16.9072Z" fill="white"/>
<path d="M18.499 13.0956C15.5191 13.0956 13.0948 15.5199 13.0948 18.4998C13.0948 21.4797 15.5191 23.904 18.499 23.904C21.4789 23.904 23.9032 21.4797 23.9032 18.4998C23.9032 15.5199 21.4789 13.0956 18.499 13.0956ZM19.452 21.9252H18.9703V22.8358H18.0277V21.9252H15.9527V20.9826H16.7225V16.0171H15.9527V15.0745H18.0277V14.1639H18.9703V15.0745H19.2006C19.6884 15.0744 20.1481 15.2654 20.4949 15.6122C20.8417 15.959 21.0327 16.4187 21.0327 16.9066C21.0327 17.374 20.8565 17.8008 20.5675 18.1248C20.6898 18.2039 20.8049 18.2963 20.9105 18.4019C21.3013 18.7928 21.5165 19.3108 21.5165 19.8606C21.5165 20.999 20.5904 21.9252 19.452 21.9252Z" fill="white"/>
<path d="M24.1868 12.8124C22.6675 11.2932 20.6477 10.4565 18.4992 10.4565C16.3507 10.4565 14.3308 11.2932 12.8115 12.8124C11.2924 14.3316 10.4557 16.3515 10.4557 18.5C10.4557 20.6485 11.2924 22.6684 12.8115 24.1876C14.3308 25.7068 16.3507 26.5435 18.4992 26.5435C20.6477 26.5435 22.6675 25.7068 24.1868 24.1876C25.706 22.6684 26.5426 20.6485 26.5426 18.5C26.5426 16.3515 25.706 14.3316 24.1868 12.8124ZM18.4992 24.8468C14.9995 24.8468 12.1524 21.9997 12.1524 18.5C12.1524 15.0004 14.9995 12.1532 18.4992 12.1532C21.9988 12.1532 24.846 15.0004 24.846 18.5C24.846 21.9997 21.9988 24.8468 18.4992 24.8468Z" fill="white"/>
</svg>
