<svg width="37" height="37" viewBox="0 0 37 37" fill="none" xmlns="http://www.w3.org/2000/svg">
<circle cx="18.5" cy="18.5" r="18.5" fill="#03A9F4"/>
<path d="M22.8463 13.1577C22.1713 12.3931 20.9497 12.0655 19.3869 12.0655H14.8516C14.5322 12.0655 14.2607 12.2963 14.21 12.6085L12.3215 24.4906C12.2844 24.725 12.4672 24.9367 12.7061 24.9367H15.5059L16.209 20.5118L16.1872 20.6511C16.237 20.339 16.5076 20.1082 16.827 20.1082H18.1572C20.7714 20.1082 22.8174 19.0549 23.4155 16.0081C23.4336 15.9177 23.4617 15.7439 23.4617 15.7439C23.6317 14.6164 23.4607 13.8518 22.8463 13.1577Z" fill="white"/>
<path d="M24.1708 16.3219C23.5211 19.3216 21.448 20.9088 18.1578 20.9088H16.9652L16.0748 26.5445H18.0094C18.289 26.5445 18.527 26.3427 18.5704 26.0685L18.5931 25.9491L19.0383 23.152L19.0672 22.9982C19.1107 22.724 19.3486 22.5222 19.6274 22.5222H19.9812C22.2678 22.5222 24.0577 21.6011 24.5807 18.9362C24.7907 17.8666 24.6893 16.9698 24.1708 16.3219Z" fill="white"/>
</svg>
