<svg width="37" height="37" viewBox="0 0 37 37" fill="none" xmlns="http://www.w3.org/2000/svg">
<circle cx="18.5" cy="18.5" r="18.5" fill="#DA251C"/>
<path d="M12.5061 18.7699V20.6986C12.5061 21.1152 12.5517 21.374 12.6428 21.4749C12.7665 21.6182 12.9537 21.6898 13.2044 21.6898H13.4583V21.8705H10.6214V21.6898H10.8704C11.1503 21.6898 11.3505 21.5986 11.471 21.4164C11.5361 21.3154 11.5686 21.0762 11.5686 20.6986V16.4212C11.5686 16.0046 11.5247 15.7458 11.4368 15.6449C11.3098 15.5016 11.121 15.43 10.8704 15.43H10.6214V15.2494H13.0481C13.6406 15.2494 14.1077 15.3112 14.4495 15.4349C14.7913 15.5553 15.0794 15.7604 15.3137 16.0501C15.5481 16.3399 15.6653 16.6833 15.6653 17.0804C15.6653 17.6208 15.4863 18.0602 15.1282 18.3988C14.7734 18.7373 14.2704 18.9066 13.6194 18.9066C13.4599 18.9066 13.2874 18.8952 13.1018 18.8724C12.9163 18.8496 12.7177 18.8154 12.5061 18.7699ZM12.5061 18.4915C12.6786 18.5241 12.8316 18.5485 12.9651 18.5648C13.0986 18.5811 13.2125 18.5892 13.3069 18.5892C13.6454 18.5892 13.9368 18.459 14.1809 18.1986C14.4283 17.9349 14.552 17.5947 14.552 17.1781C14.552 16.8916 14.4934 16.6263 14.3762 16.3822C14.259 16.1348 14.093 15.9509 13.8782 15.8304C13.6633 15.7067 13.4192 15.6449 13.1458 15.6449C12.9798 15.6449 12.7665 15.6758 12.5061 15.7376V18.4915ZM20.2635 21.8705L17.7049 16.2992V20.723C17.7049 21.1299 17.7489 21.3838 17.8368 21.4847C17.9572 21.6214 18.1477 21.6898 18.4081 21.6898H18.6424V21.8705H16.3378V21.6898H16.5721C16.8521 21.6898 17.0507 21.6052 17.1678 21.4359C17.2395 21.3317 17.2753 21.0941 17.2753 20.723V16.3968C17.2753 16.1039 17.2427 15.8923 17.1776 15.7621C17.132 15.6677 17.0474 15.5895 16.9237 15.5277C16.8033 15.4626 16.6079 15.43 16.3378 15.43V15.2494H18.2128L20.6151 20.43L22.9784 15.2494H24.8534V15.43H24.6239C24.3407 15.43 24.1405 15.5147 24.0233 15.6839C23.9517 15.7881 23.9159 16.0257 23.9159 16.3968V20.723C23.9159 21.1299 23.9615 21.3838 24.0526 21.4847C24.173 21.6214 24.3635 21.6898 24.6239 21.6898H24.8534V21.8705H22.0409V21.6898H22.2753C22.5585 21.6898 22.757 21.6052 22.871 21.4359C22.9426 21.3317 22.9784 21.0941 22.9784 20.723V16.2992L20.4247 21.8705H20.2635Z" fill="white"/>
</svg>
